<svg width="163" height="34" viewBox="0 0 163 34" fill="none" xmlns="http://www.w3.org/2000/svg">
<path d="M86.7798 16.6373C85.3879 16.6373 84.3846 17.094 83.3673 17.5594V28.0899C84.3417 28.1828 84.9003 28.1828 85.8248 28.1828C89.1656 28.1828 89.6235 26.6516 89.6235 24.5136V19.4842C89.6235 17.9053 89.1 16.6373 86.7798 16.6373ZM64.5931 16.0626C62.2752 16.0626 61.7463 17.3361 61.7463 18.9134V19.7997H67.4369V18.9134C67.4369 17.3361 66.9079 16.0626 64.5931 16.0626ZM21.6132 27.0233C21.6132 28.271 22.2015 28.9191 23.4997 28.9191C24.8923 28.9191 25.7169 28.4647 26.7335 27.9977V25.4998H23.6885C22.2467 25.4998 21.6132 25.7684 21.6132 27.0233ZM108.362 16.6373C106.04 16.6373 105.236 17.9053 105.236 19.4842V25.2461C105.236 26.8288 106.04 28.1008 108.362 28.1008C110.677 28.1008 111.488 26.8288 111.488 25.2461V19.4842C111.487 17.9053 110.677 16.6373 108.362 16.6373ZM10.2351 33.4839H3.41015V16.9504H0V11.2533H3.41093V7.83169C3.41093 3.18333 5.33562 0.419922 10.8062 0.419922H15.3609V6.11852H12.514C10.3841 6.11852 10.2437 6.91498 10.2437 8.40092L10.2351 11.2526H15.3921L14.789 16.9496H10.2351V33.4839ZM33.5601 33.5269H27.8718L27.626 32.087C25.0288 33.5269 22.7109 33.7604 21.1818 33.7604C17.0102 33.7604 14.7898 30.9712 14.7898 27.1138C14.7898 22.5631 17.3808 20.9389 22.0158 20.9389H26.7335V19.9551C26.7335 17.6321 26.4675 16.9504 22.8982 16.9504H17.0625L17.6328 11.2533H24.0115C31.8429 11.2533 33.5601 13.7294 33.5601 20.0011V33.5269ZM52.903 17.3681C49.3633 16.7606 48.3467 16.6271 46.6436 16.6271C43.5845 16.6271 42.66 17.3025 42.66 19.9027V24.8213C42.66 27.4215 43.5845 28.1 46.6436 28.1C48.3467 28.1 49.3633 27.9642 52.903 27.3543V32.9116C49.8025 33.6073 47.7827 33.79 46.0756 33.79C38.7482 33.79 35.8358 29.9335 35.8358 24.3621V20.3713C35.8358 14.7952 38.7482 10.9316 46.0756 10.9316C47.7827 10.9316 49.8025 11.1151 52.903 11.814V17.3681ZM74.2611 24.3621H61.7455V24.8213C61.7455 27.4215 62.6708 28.1 65.7291 28.1C68.4784 28.1 70.1566 27.9642 73.69 27.3543V32.9116C70.2822 33.6073 68.5065 33.79 65.1634 33.79C57.8352 33.79 54.9213 29.9335 54.9213 24.3621V19.7989C54.9213 14.9241 57.0831 10.9316 64.5923 10.9316C72.1015 10.9316 74.2611 14.878 74.2611 19.7989V24.3621ZM96.4469 24.4676C96.4469 29.8522 94.9092 33.7799 85.5939 33.7799C82.2298 33.7799 80.2567 33.484 76.5439 32.9124V2.13153L83.3665 0.992281V11.7593C84.841 11.2112 86.7493 10.9324 88.486 10.9324C95.3094 10.9324 96.4462 13.9941 96.4462 18.9142V24.4676H96.4469ZM118.318 24.5847C118.318 29.2299 116.402 33.7354 108.384 33.7354C100.363 33.7354 98.4114 29.2299 98.4114 24.5847V20.0995C98.4114 15.4519 100.363 10.9457 108.384 10.9457C116.402 10.9457 118.318 15.4519 118.318 20.0995V24.5847ZM140.173 24.5847C140.173 29.2299 138.255 33.7354 130.24 33.7354C122.219 33.7354 120.266 29.2299 120.266 24.5847V20.0995C120.266 15.4519 122.219 10.9457 130.24 10.9457C138.255 10.9457 140.173 15.4519 140.173 20.0995V24.5847ZM162.603 33.4839H155.207L148.953 23.0339V33.4839H142.128V2.13075L148.953 0.991499V21.1755L155.207 11.2533H162.603L155.775 22.0813L162.603 33.4839ZM130.216 16.6373C127.898 16.6373 127.094 17.9053 127.094 19.4842V25.2461C127.094 26.8288 127.898 28.1008 130.216 28.1008C132.531 28.1008 133.35 26.8288 133.35 25.2461V19.4842C133.35 17.9053 132.531 16.6373 130.216 16.6373Z" fill="white"/>
</svg>
