<svg width="146" height="48" viewBox="0 0 146 48" fill="none" xmlns="http://www.w3.org/2000/svg">
<path d="M62.3403 25.2602C62.3403 32.166 56.9431 37.2548 50.3196 37.2548C43.696 37.2548 38.2988 32.166 38.2988 25.2602C38.2988 18.3057 43.696 13.2656 50.3196 13.2656C56.9431 13.2656 62.3403 18.3057 62.3403 25.2602ZM57.0782 25.2602C57.0782 20.9448 53.9501 17.9921 50.3196 17.9921C46.689 17.9921 43.5609 20.9448 43.5609 25.2602C43.5609 29.5324 46.689 32.5284 50.3196 32.5284C53.9501 32.5284 57.0782 29.527 57.0782 25.2602Z" fill="white"/>
<path d="M88.2729 25.2602C88.2729 32.166 82.8757 37.2548 76.2522 37.2548C69.6286 37.2548 64.2314 32.166 64.2314 25.2602C64.2314 18.3111 69.6286 13.2656 76.2522 13.2656C82.8757 13.2656 88.2729 18.3057 88.2729 25.2602ZM83.0108 25.2602C83.0108 20.9448 79.8827 17.9921 76.2522 17.9921C72.6216 17.9921 69.4936 20.9448 69.4936 25.2602C69.4936 29.5324 72.6216 32.5284 76.2522 32.5284C79.8827 32.5284 83.0108 29.527 83.0108 25.2602Z" fill="white"/>
<path d="M113.124 13.9903V35.5243C113.124 44.3823 107.905 48.0002 101.735 48.0002C95.9277 48.0002 92.4322 44.112 91.114 40.9321L95.6954 39.0232C96.5112 40.9754 98.5101 43.2791 101.73 43.2791C105.679 43.2791 108.127 40.8402 108.127 36.249V34.5238H107.943C106.765 35.9786 104.496 37.2494 101.633 37.2494C95.6414 37.2494 90.1523 32.0254 90.1523 25.3035C90.1523 18.5329 95.6414 13.2656 101.633 13.2656C104.491 13.2656 106.76 14.5365 107.943 15.9479H108.127V13.9957H113.124V13.9903ZM108.499 25.3035C108.499 21.08 105.685 17.9921 102.103 17.9921C98.4723 17.9921 95.4307 21.08 95.4307 25.3035C95.4307 29.4837 98.4723 32.5284 102.103 32.5284C105.685 32.5284 108.499 29.4837 108.499 25.3035Z" fill="white"/>
<path d="M121.364 1.36719V36.5182H116.231V1.36719H121.364Z" fill="white"/>
<path d="M141.364 29.2075L145.448 31.933C144.13 33.8853 140.953 37.2489 135.464 37.2489C128.657 37.2489 123.573 31.9817 123.573 25.2544C123.573 18.1214 128.7 13.2598 134.875 13.2598C141.094 13.2598 144.135 18.2133 145.13 20.8902L145.675 22.253L129.657 28.8938C130.883 31.3003 132.79 32.5279 135.464 32.5279C138.144 32.5279 140.002 31.2084 141.364 29.2075ZM128.792 24.892L139.5 20.4414C138.911 18.9434 137.139 17.8997 135.054 17.8997C132.379 17.8997 128.657 20.2629 128.792 24.892Z" fill="white"/>
<path d="M18.8712 22.1397V17.0509H36.0028C36.1702 17.9378 36.2567 18.9869 36.2567 20.1226C36.2567 23.9405 35.214 28.6616 31.8536 32.0252C28.585 35.4322 24.4088 37.2492 18.8766 37.2492C8.62251 37.2492 0 28.8887 0 18.6246C0 8.36052 8.62251 0 18.8766 0C24.5493 0 28.5904 2.22803 31.6267 5.13204L28.0394 8.72285C25.8621 6.67868 22.9123 5.08878 18.8712 5.08878C11.3832 5.08878 5.52683 11.1293 5.52683 18.6246C5.52683 26.1199 11.3832 32.1604 18.8712 32.1604C23.7281 32.1604 26.4942 30.2082 28.2663 28.4344C29.7034 26.9959 30.6488 24.941 31.0216 22.1343L18.8712 22.1397Z" fill="white"/>
</svg>
