<svg xmlns="http://www.w3.org/2000/svg" fill="none" viewBox="0.33 0.33 13.33 13.33">
<path d="M6.99337 0.333332C3.31337 0.333332 0.333374 3.32 0.333374 7C0.333374 10.68 3.31337 13.6667 6.99337 13.6667C10.68 13.6667 13.6667 10.68 13.6667 7C13.6667 3.32 10.68 0.333332 6.99337 0.333332ZM7.00004 12.3333C4.05337 12.3333 1.66671 9.94666 1.66671 7C1.66671 4.05333 4.05337 1.66667 7.00004 1.66667C9.94671 1.66667 12.3334 4.05333 12.3334 7C12.3334 9.94666 9.94671 12.3333 7.00004 12.3333ZM6.85337 3.66667H6.81337C6.54671 3.66667 6.33337 3.88 6.33337 4.14667V7.29333C6.33337 7.52666 6.45337 7.74667 6.66004 7.86666L9.42671 9.52666C9.65337 9.66 9.94671 9.59333 10.08 9.36666C10.22 9.14 10.1467 8.84 9.91337 8.70667L7.33337 7.17333V4.14667C7.33337 3.88 7.12004 3.66667 6.85337 3.66667Z" fill="#19191D"/>
</svg>